{
  "asset": {
    "generator": "Khronos glTF Blender I/O v1.6.8",
    "version": "2.0"
  },
  "scene": 0,
  "scenes": [
    {
      "name": "Scene",
      "nodes": [
        0
      ]
    }
  ],
  "nodes": [
    {
      "mesh": 0,
      "name": "sphere_gltf.001"
    }
  ],
  "materials": [
    {
      "doubleSided": true,
      "name": "medieval_wood",
      "normalTexture": {
        "index": 0
      },
      "pbrMetallicRoughness": {
        "baseColorTexture": {
          "index": 1
        },
        "metallicFactor": 0,
        "metallicRoughnessTexture": {
          "index": 2
        }
      }
    }
  ],
  "meshes": [
    {
      "name": "Sphere.002",
      "primitives": [
        {
          "attributes": {
            "POSITION": 0,
            "NORMAL": 1,
            "TEXCOORD_0": 2
          },
          "indices": 3,
          "material": 0
        }
      ]
    }
  ],
  "textures": [
    {
      "sampler": 0,
      "source": 0
    },
    {
      "sampler": 0,
      "source": 1
    },
    {
      "sampler": 0,
      "source": 2
    }
  ],
  "images": [
    {
      "mimeType": "image/jpeg",
      "name": "medieval_wood_nor_gl_4k",
      "uri": "textures/medieval_wood_nor_gl_2k.jpg"
    },
    {
      "mimeType": "image/jpeg",
      "name": "medieval_wood_diff_4k",
      "uri": "textures/medieval_wood_diff_2k.jpg"
    },
    {
      "mimeType": "image/jpeg",
      "name": "medieval_wood_rough_4k",
      "uri": "textures/medieval_wood_rough_2k.jpg"
    }
  ],
  "accessors": [
    {
      "bufferView": 0,
      "componentType": 5126,
      "count": 53860,
      "max": [
        1.0322260856628418,
        1.0255948305130005,
        1.0377224683761597
      ],
      "min": [
        -1.0322258472442627,
        -1.0234235525131226,
        -1.0377174615859985
      ],
      "type": "VEC3"
    },
    {
      "bufferView": 1,
      "componentType": 5126,
      "count": 53860,
      "type": "VEC3"
    },
    {
      "bufferView": 2,
      "componentType": 5126,
      "count": 53860,
      "type": "VEC2"
    },
    {
      "bufferView": 3,
      "componentType": 5123,
      "count": 322170,
      "type": "SCALAR"
    }
  ],
  "bufferViews": [
    {
      "buffer": 0,
      "byteLength": 646320,
      "byteOffset": 0
    },
    {
      "buffer": 0,
      "byteLength": 646320,
      "byteOffset": 646320
    },
    {
      "buffer": 0,
      "byteLength": 430880,
      "byteOffset": 1292640
    },
    {
      "buffer": 0,
      "byteLength": 644340,
      "byteOffset": 1723520
    }
  ],
  "samplers": [
    {
      "magFilter": 9729,
      "minFilter": 9987
    }
  ],
  "buffers": [
    {
      "byteLength": 2367860,
      "uri": "medieval_wood.bin"
    }
  ]
}