{
  "asset": {
    "generator": "Khronos glTF Blender I/O v3.2.43",
    "version": "2.0"
  },
  "scene": 0,
  "scenes": [
    {
      "name": "Scene",
      "nodes": [
        0
      ]
    }
  ],
  "nodes": [
    {
      "mesh": 0,
      "name": "sphere_gltf"
    }
  ],
  "materials": [
    {
      "doubleSided": true,
      "name": "concrete_wall_006",
      "normalTexture": {
        "index": 0
      },
      "pbrMetallicRoughness": {
        "baseColorTexture": {
          "index": 1
        },
        "metallicFactor": 0,
        "metallicRoughnessTexture": {
          "index": 2
        }
      }
    }
  ],
  "meshes": [
    {
      "name": "Sphere.001",
      "primitives": [
        {
          "attributes": {
            "POSITION": 0,
            "NORMAL": 1,
            "TEXCOORD_0": 2
          },
          "indices": 3,
          "material": 0
        }
      ]
    }
  ],
  "textures": [
    {
      "sampler": 0,
      "source": 0
    },
    {
      "sampler": 0,
      "source": 1
    },
    {
      "sampler": 0,
      "source": 2
    }
  ],
  "images": [
    {
      "mimeType": "image/jpeg",
      "name": "concrete_wall_006_nor_gl_8k",
      "uri": "textures/concrete_wall_006_nor_gl_2k.jpg"
    },
    {
      "mimeType": "image/jpeg",
      "name": "concrete_wall_006_diff_8k",
      "uri": "textures/concrete_wall_006_diff_2k.jpg"
    },
    {
      "mimeType": "image/jpeg",
      "name": "concrete_wall_006_rough_8k",
      "uri": "textures/concrete_wall_006_rough_2k.jpg"
    }
  ],
  "accessors": [
    {
      "bufferView": 0,
      "componentType": 5126,
      "count": 53934,
      "max": [
        1.01716947555542,
        1.018949270248413,
        1.017478346824646
      ],
      "min": [
        -1.0175108909606934,
        -1.01885986328125,
        -1.0174741744995117
      ],
      "type": "VEC3"
    },
    {
      "bufferView": 1,
      "componentType": 5126,
      "count": 53934,
      "type": "VEC3"
    },
    {
      "bufferView": 2,
      "componentType": 5126,
      "count": 53934,
      "type": "VEC2"
    },
    {
      "bufferView": 3,
      "componentType": 5123,
      "count": 322170,
      "type": "SCALAR"
    }
  ],
  "bufferViews": [
    {
      "buffer": 0,
      "byteLength": 647208,
      "byteOffset": 0
    },
    {
      "buffer": 0,
      "byteLength": 647208,
      "byteOffset": 647208
    },
    {
      "buffer": 0,
      "byteLength": 431472,
      "byteOffset": 1294416
    },
    {
      "buffer": 0,
      "byteLength": 644340,
      "byteOffset": 1725888
    }
  ],
  "samplers": [
    {
      "magFilter": 9729,
      "minFilter": 9987
    }
  ],
  "buffers": [
    {
      "byteLength": 2370228,
      "uri": "concrete_wall_006.bin"
    }
  ]
}